<?xml version="1.0" encoding="UTF-8" standalone="no"?>
<svg viewBox="0 0 50 50"
 xmlns="http://www.w3.org/2000/svg" xmlns:xlink="http://www.w3.org/1999/xlink"  version="1.2" baseProfile="tiny">
<title>Qt SVG Document</title>
<desc>Generated with Qt</desc>
<defs>
<linearGradient gradientUnits="userSpaceOnUse" x1="49.1954" y1="515.033" x2="1067.24" y2="516.85" id="gradient1">
    <stop offset="0" stop-color="#d300dc" stop-opacity="1" />
    <stop offset="1" stop-color="#8700ff" stop-opacity="1" />
</linearGradient>
</defs>
<g fill="none" stroke="black" stroke-width="1" fill-rule="evenodd" stroke-linecap="square" stroke-linejoin="bevel" >

<g fill="#b800d2" fill-opacity="1" stroke="none" transform="matrix(0.0548326,0,0,-0.0548323,-1.6926,50.0276)"
font-family="Noto Sans" font-size="10" font-weight="400" font-style="normal" 
>
<path vector-effect="none" fill-rule="evenodd" d="M486.806,0.502897 C738.607,0.502897 942.735,204.633 942.735,456.438 C942.735,708.245 738.607,912.374 486.806,912.374 C234.998,912.374 30.8685,708.245 30.8685,456.438 C30.8685,204.633 234.998,0.502897 486.806,0.502897 "/>
</g>

<g fill="url(#gradient1)" stroke="none" transform="matrix(0.0548326,0,0,-0.0548323,-1.6926,50.0276)"
font-family="Noto Sans" font-size="10" font-weight="400" font-style="normal" 
>
<path vector-effect="none" fill-rule="evenodd" d="M486.804,33.0692 C720.622,33.0692 910.169,222.621 910.169,456.44 C910.169,690.26 720.622,879.808 486.804,879.808 C252.982,879.808 63.4351,690.26 63.4351,456.44 C63.4351,222.621 252.982,33.0692 486.804,33.0692 "/>
</g>

<g fill="none" stroke="#000000" stroke-opacity="1" stroke-width="1" stroke-linecap="square" stroke-linejoin="bevel" transform="matrix(1,0,0,1,0,0)"
font-family="Noto Sans" font-size="10" font-weight="400" font-style="normal" 
>
</g>
</g>
</svg>
