<?xml version="1.0" encoding="UTF-8" standalone="no"?>
<svg viewBox="0 0 50 50"
 xmlns="http://www.w3.org/2000/svg" xmlns:xlink="http://www.w3.org/1999/xlink"  version="1.2" baseProfile="tiny">
<title>Qt SVG Document</title>
<desc>Generated with Qt</desc>
<defs>
</defs>
<g fill="none" stroke="black" stroke-width="1" fill-rule="evenodd" stroke-linecap="square" stroke-linejoin="bevel" >

<g fill="#5b5c63" fill-opacity="1" stroke="none" transform="matrix(0.0548323,0,0,-0.0548325,-0.0249125,48.9938)"
font-family="Noto Sans" font-size="10" font-weight="400" font-style="normal" 
>
<path vector-effect="none" fill-rule="evenodd" d="M456.39,-18.3504 C708.196,-18.3504 912.325,185.776 912.325,437.585 C912.325,689.387 708.196,893.517 456.39,893.517 C204.584,893.517 0.454339,689.387 0.454339,437.585 C0.454339,185.776 204.584,-18.3504 456.39,-18.3504 "/>
</g>

<g fill="#5b5c63" fill-opacity="1" stroke="none" transform="matrix(0.0548323,0,0,-0.0548325,-0.0249125,48.9938)"
font-family="Noto Sans" font-size="10" font-weight="400" font-style="normal" 
>
<path vector-effect="none" fill-rule="evenodd" d="M456.39,20.4254 C686.779,20.4254 873.549,207.193 873.549,437.585 C873.549,667.969 686.779,854.741 456.39,854.741 C226.001,854.741 39.2303,667.969 39.2303,437.585 C39.2303,207.193 226.001,20.4254 456.39,20.4254 "/>
</g>

<g fill="none" stroke="#000000" stroke-opacity="1" stroke-width="1" stroke-linecap="square" stroke-linejoin="bevel" transform="matrix(1,0,0,1,0,0)"
font-family="Noto Sans" font-size="10" font-weight="400" font-style="normal" 
>
</g>
</g>
</svg>
