<?xml version="1.0" encoding="UTF-8" standalone="no"?>
<svg viewBox="0 0 50 50"
 xmlns="http://www.w3.org/2000/svg" xmlns:xlink="http://www.w3.org/1999/xlink"  version="1.2" baseProfile="tiny">
<title>Qt SVG Document</title>
<desc>Generated with Qt</desc>
<defs>
<linearGradient gradientUnits="userSpaceOnUse" x1="5.68572" y1="515.151" x2="865.455" y2="540.103" id="gradient1">
    <stop offset="0" stop-color="#ff416c" stop-opacity="1" />
    <stop offset="1" stop-color="#ff4b2b" stop-opacity="1" />
</linearGradient>
</defs>
<g fill="none" stroke="black" stroke-width="1" fill-rule="evenodd" stroke-linecap="square" stroke-linejoin="bevel" >

<g fill="url(#gradient1)" stroke="none" transform="matrix(0.0548323,0,0,-0.0548323,-0.380168,50.1828)"
font-family="Noto Sans" font-size="10" font-weight="400" font-style="normal" 
>
<path vector-effect="none" fill-rule="evenodd" d="M462.873,899.089 C705.774,899.089 902.688,702.177 902.688,459.269 C902.688,216.362 705.774,19.4501 462.873,19.4501 C219.964,19.4501 23.0496,216.362 23.0496,459.269 C23.0496,702.177 219.964,899.089 462.873,899.089 "/>
</g>

<g fill="none" stroke="#e70340" stroke-opacity="1" stroke-width="32.2326" stroke-linecap="butt" stroke-linejoin="miter" stroke-miterlimit="4" transform="matrix(0.0548323,0,0,-0.0548323,-0.380168,50.1828)"
font-family="Noto Sans" font-size="10" font-weight="400" font-style="normal" 
>
<path vector-effect="none" fill-rule="evenodd" d="M462.873,899.089 C705.774,899.089 902.688,702.177 902.688,459.269 C902.688,216.362 705.774,19.4501 462.873,19.4501 C219.964,19.4501 23.0496,216.362 23.0496,459.269 C23.0496,702.177 219.964,899.089 462.873,899.089 "/>
</g>

<g fill="#9f1d2b" fill-opacity="1" stroke="none" transform="matrix(0.0548323,0,0,-0.0548323,-0.380168,50.1828)"
font-family="Noto Sans" font-size="10" font-weight="400" font-style="normal" 
>
<path vector-effect="none" fill-rule="evenodd" d="M246.821,299.191 L623.233,675.604 C637.801,690.171 661.633,690.171 676.208,675.604 L676.905,674.9 C691.475,660.334 691.475,636.5 676.909,621.93 L300.496,245.521 C285.925,230.95 262.092,230.95 247.525,245.521 L246.821,246.217 C232.254,260.787 232.254,284.625 246.821,299.191 "/>
</g>

<g fill="#9f1d2b" fill-opacity="1" stroke="none" transform="matrix(0.0548323,0,0,-0.0548323,-0.380168,50.1828)"
font-family="Noto Sans" font-size="10" font-weight="400" font-style="normal" 
>
<path vector-effect="none" fill-rule="evenodd" d="M300.496,675.604 L676.905,299.191 C691.471,284.625 691.471,260.787 676.905,246.221 L676.204,245.521 C661.633,230.95 637.801,230.95 623.233,245.521 L246.821,621.93 C232.25,636.5 232.25,660.334 246.821,674.905 L247.521,675.604 C262.092,690.175 285.925,690.175 300.496,675.604 "/>
</g>

<g fill="none" stroke="#000000" stroke-opacity="1" stroke-width="1" stroke-linecap="square" stroke-linejoin="bevel" transform="matrix(1,0,0,1,0,0)"
font-family="Noto Sans" font-size="10" font-weight="400" font-style="normal" 
>
</g>
</g>
</svg>
