<?xml version="1.0" encoding="UTF-8" standalone="no"?>
<svg viewBox="0 0 50 50"
 xmlns="http://www.w3.org/2000/svg" xmlns:xlink="http://www.w3.org/1999/xlink"  version="1.2" baseProfile="tiny">
<title>Qt SVG Document</title>
<desc>Generated with Qt</desc>
<defs>
<linearGradient gradientUnits="userSpaceOnUse" x1="5.68572" y1="515.151" x2="865.455" y2="540.103" id="gradient1">
    <stop offset="0" stop-color="#ff416c" stop-opacity="1" />
    <stop offset="1" stop-color="#ff4b2b" stop-opacity="1" />
</linearGradient>
</defs>
<g fill="none" stroke="black" stroke-width="1" fill-rule="evenodd" stroke-linecap="square" stroke-linejoin="bevel" >

<g fill="url(#gradient1)" stroke="none" transform="matrix(0.0548326,0,0,-0.0548323,-2.81266,49.7339)"
font-family="Noto Sans" font-size="10" font-weight="400" font-style="normal" 
>
<path vector-effect="none" fill-rule="evenodd" d="M507.233,11.2628 C750.133,11.2628 947.046,208.177 947.046,451.082 C947.046,693.988 750.133,890.902 507.233,890.902 C264.325,890.902 67.4117,693.988 67.4117,451.082 C67.4117,208.177 264.325,11.2628 507.233,11.2628 "/>
</g>

<g fill="none" stroke="#e70340" stroke-opacity="1" stroke-width="32.2324" stroke-linecap="butt" stroke-linejoin="miter" stroke-miterlimit="4" transform="matrix(0.0548326,0,0,-0.0548323,-2.81266,49.7339)"
font-family="Noto Sans" font-size="10" font-weight="400" font-style="normal" 
>
<path vector-effect="none" fill-rule="evenodd" d="M507.233,11.2628 C750.133,11.2628 947.046,208.177 947.046,451.082 C947.046,693.988 750.133,890.902 507.233,890.902 C264.325,890.902 67.4117,693.988 67.4117,451.082 C67.4117,208.177 264.325,11.2628 507.233,11.2628 "/>
</g>

<g fill="none" stroke="#000000" stroke-opacity="1" stroke-width="1" stroke-linecap="square" stroke-linejoin="bevel" transform="matrix(1,0,0,1,0,0)"
font-family="Noto Sans" font-size="10" font-weight="400" font-style="normal" 
>
</g>
</g>
</svg>
