<?xml version="1.0" encoding="UTF-8" standalone="no"?>
<svg viewBox="0 0 50 50"
 xmlns="http://www.w3.org/2000/svg" xmlns:xlink="http://www.w3.org/1999/xlink"  version="1.2" baseProfile="tiny">
<title>Qt SVG Document</title>
<desc>Generated with Qt</desc>
<defs>
<linearGradient gradientUnits="userSpaceOnUse" x1="49.1954" y1="515.033" x2="1067.24" y2="516.85" id="gradient1">
    <stop offset="0" stop-color="#d300dc" stop-opacity="1" />
    <stop offset="1" stop-color="#8700ff" stop-opacity="1" />
</linearGradient>
</defs>
<g fill="none" stroke="black" stroke-width="1" fill-rule="evenodd" stroke-linecap="square" stroke-linejoin="bevel" >

<g fill="#b800d2" fill-opacity="1" stroke="none" transform="matrix(0.0548323,0,0,-0.0548323,-4.51811,49.8508)"
font-family="Noto Sans" font-size="10" font-weight="400" font-style="normal" 
>
<path vector-effect="none" fill-rule="evenodd" d="M538.338,-2.72068 C790.141,-2.72068 994.27,201.409 994.27,453.214 C994.27,705.021 790.141,909.15 538.338,909.15 C286.529,909.15 82.3986,705.021 82.3986,453.214 C82.3986,201.409 286.529,-2.72068 538.338,-2.72068 "/>
</g>

<g fill="url(#gradient1)" stroke="none" transform="matrix(0.0548323,0,0,-0.0548323,-4.51811,49.8508)"
font-family="Noto Sans" font-size="10" font-weight="400" font-style="normal" 
>
<path vector-effect="none" fill-rule="evenodd" d="M538.337,29.8456 C772.155,29.8456 961.703,219.398 961.703,453.216 C961.703,687.036 772.155,876.584 538.337,876.584 C304.514,876.584 114.966,687.036 114.966,453.216 C114.966,219.398 304.514,29.8456 538.337,29.8456 "/>
</g>

<g fill="#432f52" fill-opacity="1" stroke="none" transform="matrix(0.05936,0,0,-0.0593601,-1.0268,50.0523)"
font-family="Noto Sans" font-size="10" font-weight="400" font-style="normal" 
>
<path vector-effect="none" fill-rule="evenodd" d="M317.364,650.001 L584.563,650.001 C620.142,650.001 649.255,620.888 649.255,585.306 L649.255,318.11 L317.364,650.001 M549.688,213.79 L281.435,213.79 C245.852,213.79 216.743,242.899 216.743,278.481 L216.743,546.735 L549.688,213.79"/>
</g>

<g fill="none" stroke="#000000" stroke-opacity="1" stroke-width="1" stroke-linecap="square" stroke-linejoin="bevel" transform="matrix(1,0,0,1,0,0)"
font-family="Noto Sans" font-size="10" font-weight="400" font-style="normal" 
>
</g>
</g>
</svg>
