<?xml version="1.0" encoding="UTF-8" standalone="no"?>
<svg viewBox="0 0 50 50"
 xmlns="http://www.w3.org/2000/svg" xmlns:xlink="http://www.w3.org/1999/xlink"  version="1.2" baseProfile="tiny">
<title>Qt SVG Document</title>
<desc>Generated with Qt</desc>
<defs>
<linearGradient gradientUnits="userSpaceOnUse" x1="49.1954" y1="515.033" x2="1067.24" y2="516.85" id="gradient1">
    <stop offset="0" stop-color="#d300dc" stop-opacity="1" />
    <stop offset="1" stop-color="#8700ff" stop-opacity="1" />
</linearGradient>
</defs>
<g fill="none" stroke="black" stroke-width="1" fill-rule="evenodd" stroke-linecap="square" stroke-linejoin="bevel" >

<g fill="#b800d2" fill-opacity="1" stroke="none" transform="matrix(0.0548323,0,0,-0.0548326,-4.16213,50.1607)"
font-family="Noto Sans" font-size="10" font-weight="400" font-style="normal" 
>
<path vector-effect="none" fill-rule="evenodd" d="M531.846,2.93074 C783.648,2.93074 987.778,207.06 987.778,458.864 C987.778,710.669 783.648,914.798 531.846,914.798 C280.037,914.798 75.9066,710.669 75.9066,458.864 C75.9066,207.06 280.037,2.93074 531.846,2.93074 "/>
</g>

<g fill="url(#gradient1)" stroke="none" transform="matrix(0.0548323,0,0,-0.0548326,-4.16213,50.1607)"
font-family="Noto Sans" font-size="10" font-weight="400" font-style="normal" 
>
<path vector-effect="none" fill-rule="evenodd" d="M531.845,35.4969 C765.663,35.4969 955.211,225.048 955.211,458.866 C955.211,692.684 765.663,882.231 531.845,882.231 C298.022,882.231 108.474,692.684 108.474,458.866 C108.474,225.048 298.022,35.4969 531.845,35.4969 "/>
</g>

<g fill="#432f52" fill-opacity="1" stroke="none" transform="matrix(0.05936,0,0,-0.0593601,-1.0268,50.0523)"
font-family="Noto Sans" font-size="10" font-weight="400" font-style="normal" 
>
<path vector-effect="none" fill-rule="evenodd" d="M317.364,650.001 L584.563,650.001 C620.142,650.001 649.255,620.888 649.255,585.306 L649.255,318.11 L317.364,650.001 M549.688,213.79 L281.435,213.79 C245.852,213.79 216.743,242.899 216.743,278.481 L216.743,546.735 L549.688,213.79"/>
</g>

<g fill="none" stroke="#000000" stroke-opacity="1" stroke-width="1" stroke-linecap="square" stroke-linejoin="bevel" transform="matrix(1,0,0,1,0,0)"
font-family="Noto Sans" font-size="10" font-weight="400" font-style="normal" 
>
</g>
</g>
</svg>
