<?xml version="1.0" encoding="UTF-8" standalone="no"?>
<svg viewBox="0 0 50 50"
 xmlns="http://www.w3.org/2000/svg" xmlns:xlink="http://www.w3.org/1999/xlink"  version="1.2" baseProfile="tiny">
<title>Qt SVG Document</title>
<desc>Generated with Qt</desc>
<defs>
<linearGradient gradientUnits="userSpaceOnUse" x1="47.7417" y1="466.21" x2="882.037" y2="466.21" id="gradient1">
    <stop offset="0" stop-color="#fcbe07" stop-opacity="1" />
    <stop offset="1" stop-color="#fcbe07" stop-opacity="0" />
</linearGradient>
</defs>
<g fill="none" stroke="black" stroke-width="1" fill-rule="evenodd" stroke-linecap="square" stroke-linejoin="bevel" >

<g fill="#fcbe07" fill-opacity="1" stroke="none" transform="matrix(0.0548333,0,0,-0.0548338,-0.491443,50.5641)"
font-family="Noto Sans" font-size="10" font-weight="400" font-style="normal" 
>
<path vector-effect="none" fill-rule="evenodd" d="M464.887,10.2875 C716.691,10.2875 920.817,214.413 920.817,466.208 C920.817,718.009 716.691,922.133 464.887,922.133 C213.088,922.133 8.9625,718.009 8.9625,466.208 C8.9625,214.413 213.088,10.2875 464.887,10.2875 "/>
</g>

<g fill="url(#gradient1)" stroke="none" transform="matrix(0.0548333,0,0,-0.0548338,-0.491443,50.5641)"
font-family="Noto Sans" font-size="10" font-weight="400" font-style="normal" 
>
<path vector-effect="none" fill-rule="evenodd" d="M464.887,49.0625 C695.275,49.0625 882.037,235.829 882.037,466.208 C882.037,696.596 695.275,883.358 464.887,883.358 C234.505,883.358 47.7417,696.596 47.7417,466.208 C47.7417,235.829 234.505,49.0625 464.887,49.0625 "/>
</g>

<g fill="#cd6e19" fill-opacity="1" stroke="none" transform="matrix(0.0548333,0,0,-0.0548338,-0.491443,50.5641)"
font-family="Noto Sans" font-size="10" font-weight="400" font-style="normal" 
opacity="0.9" >
<path vector-effect="none" fill-rule="evenodd" d="M196.105,466.205 L733.674,466.215"/>
</g>

<g fill="none" stroke="#975616" stroke-opacity="1" stroke-width="71.8461" stroke-linecap="round" stroke-linejoin="miter" stroke-miterlimit="4" transform="matrix(0.0548333,0,0,-0.0548338,-0.491443,50.5641)"
font-family="Noto Sans" font-size="10" font-weight="400" font-style="normal" 
opacity="0.9" >
<path vector-effect="none" fill-rule="evenodd" d="M196.105,466.205 L733.674,466.215"/>
</g>

<g fill="none" stroke="#000000" stroke-opacity="1" stroke-width="1" stroke-linecap="square" stroke-linejoin="bevel" transform="matrix(1,0,0,1,0,0)"
font-family="Noto Sans" font-size="10" font-weight="400" font-style="normal" 
>
</g>
</g>
</svg>
