<svg width="2560" height="1440" viewBox="0 0 2560 1440" fill="none" xmlns="http://www.w3.org/2000/svg">
<rect width="2560" height="1440" fill="white"/>
<rect width="2560" height="1440" fill="#1E1E2E"/>
<path d="M1279.5 619.395C1272.22 636.266 1267.02 648.944 1260.47 663.21C1257.93 668.748 1255.19 674.526 1252.04 680.881C1258.94 687.794 1267.41 695.805 1281.16 704.897C1266.37 699.146 1256.3 693.413 1248.76 687.422C1235.93 712.745 1216.58 747.617 1180.09 809.99C1175.65 817.576 1170.96 825.568 1166 834C1201.97 814.366 1229.87 802.275 1255.86 797.654C1254.75 793.117 1254.13 788.194 1254.17 783.074L1254.17 782.951L1254.21 782.017C1254.78 760.225 1266.77 743.443 1280.98 744.581C1294.41 745.656 1305.02 762.368 1305.65 782.606C1305.69 783.773 1305.69 784.951 1305.66 786.139C1305.55 790.237 1305.07 794.166 1304.22 797.823C1329.92 802.582 1357.52 814.637 1393 833.999C1388.27 825.771 1383.87 818.105 1379.68 810.773C1377.66 807.25 1375.69 803.805 1373.76 800.412C1364.36 793.527 1354.58 784.564 1334.59 774.864C1348.33 778.239 1358.2 782.127 1365.87 786.48C1361.54 778.854 1357.49 771.701 1353.7 764.975C1304.43 677.535 1298.81 662.242 1279.5 619.395Z" fill="#1D89A0"/>
<path d="M1166 819.603V834C1170.96 825.568 1175.65 817.576 1180.09 809.99L1166 819.603Z" fill="#1D89A0"/>
<path d="M1393 833.999V819.602L1379.68 810.773C1383.87 818.105 1388.27 825.771 1393 833.999Z" fill="#1D89A0"/>
<path d="M1365.87 786.48V772.081L1353.7 764.975C1357.49 771.701 1361.54 778.854 1365.87 786.48Z" fill="#1D89A0"/>
<path d="M1252.04 666.486V680.881C1255.19 674.526 1257.93 668.748 1260.47 663.21L1252.04 666.486Z" fill="#1D89A0"/>
<path d="M1254.17 783.074C1254.13 788.194 1254.75 793.117 1255.86 797.654V783.257L1254.17 782.951L1254.17 783.074Z" fill="#1D89A0"/>
<path d="M1304.22 797.823C1305.07 794.166 1305.55 790.237 1305.66 786.139C1305.69 784.951 1305.69 783.773 1305.65 782.606L1304.22 783.427V797.823Z" fill="#1D89A0"/>
<path d="M1279.5 605C1269.39 628.421 1263.29 643.762 1252.04 666.486C1258.94 673.399 1267.41 681.41 1281.16 690.501C1266.37 684.75 1256.3 679.018 1248.76 673.026C1234.37 701.429 1211.78 741.845 1166 819.605C1201.97 799.971 1229.87 787.879 1255.86 783.258C1254.75 778.722 1254.13 773.798 1254.17 768.679L1254.21 767.622C1254.78 745.83 1266.77 729.047 1280.98 730.185C1295.18 731.322 1306.23 749.952 1305.66 771.743C1305.55 775.842 1305.07 779.771 1304.22 783.427C1329.92 788.187 1357.52 800.241 1393 819.604C1386 807.423 1379.72 796.474 1373.76 786.016C1364.36 779.131 1354.58 770.169 1334.59 760.468C1348.33 763.844 1358.2 767.731 1365.87 772.084C1305.22 665.329 1300.3 651.143 1279.5 605Z" fill="#44C2DD"/>
</svg>
